PathFileType	4	(X/Y/Z)	C:/Users/opensim2020/Desktop/walking_exp_matlab/subject02_walking05_straight_02.trc	
DataRate	CameraRate	NumFrames	NumMarkers	Units	OrigDataRate	OrigDataStartFrame	OrigNumFrames	
100.00	100.00	8	42	mm	100.00	1457	243	
Frame#	Time	LFHD			RFHD			LBHD			RBHD			C7			T10			CLAV			STRN			RBAK			LSHO			LUPA			LELB			LFRM			LWRA			LWRB			LFIN			RSHO			RUPA			RELB			RFRM			RWRA			RWRB			RFIN			LASI			RASI			LPSI			RPSI			LTHI			LKNE			LTIB			LANK			LHEE			LTOE			RTHI			RKNE			RTIB			RANK			RHEE			RTOE			*39			*40			*41			
		X1	Y1	Z1	X2	Y2	Z2	X3	Y3	Z3	X4	Y4	Z4	X5	Y5	Z5	X6	Y6	Z6	X7	Y7	Z7	X8	Y8	Z8	X9	Y9	Z9	X10	Y10	Z10	X11	Y11	Z11	X12	Y12	Z12	X13	Y13	Z13	X14	Y14	Z14	X15	Y15	Z15	X16	Y16	Z16	X17	Y17	Z17	X18	Y18	Z18	X19	Y19	Z19	X20	Y20	Z20	X21	Y21	Z21	X22	Y22	Z22	X23	Y23	Z23	X24	Y24	Z24	X25	Y25	Z25	X26	Y26	Z26	X27	Y27	Z27	X28	Y28	Z28	X29	Y29	Z29	X30	Y30	Z30	X31	Y31	Z31	X32	Y32	Z32	X33	Y33	Z33	X34	Y34	Z34	X35	Y35	Z35	X36	Y36	Z36	X37	Y37	Z37	X38	Y38	Z38	X39	Y39	Z39	X40	Y40	Z40	X41	Y41	Z41	X42	Y42	Z42	

92	0.910	1486.38989	335.59430	1735.20056	1344.59741	348.59836	1715.11023	1508.58472	445.03842	1633.94592	1369.18127	469.50946	1610.79297	1427.29688	491.11246	1502.93872	1420.69470	543.35358	1229.31543	1444.23376	350.94867	1435.29187	1426.91052	300.19641	1262.84583	1355.57751	543.72388	1334.19836	1609.88049	432.75641	1470.83740	1686.48523	490.05603	1280.02991	1698.60181	525.10632	1145.57166	1723.66809	553.93799	1019.80853	1720.97559	527.72650	880.78027	1738.33240	578.21521	899.53992	1749.71448	580.12067	832.87140	1245.71399	398.15375	1477.11218	1155.68140	391.07028	1285.52429	1138.42615	347.19156	1143.12268	1133.95557	282.75885	1039.83447	1170.52283	202.60478	936.97327	1131.36853	238.71510	917.18768	1140.03735	182.67795	871.68036	1541.34814	295.38049	971.02637	1282.67737	326.17282	948.86115	1482.23853	514.06097	1010.58246	1369.89282	531.48163	1011.30762	1614.48975	290.39285	671.69586	1581.28735	262.45236	473.77420	1579.42505	264.01984	279.55710	1556.62366	201.18463	67.57301	1503.49866	230.54790	40.37713	1568.60828	45.51629	43.70368	1235.18091	482.04486	659.75592	1274.42542	539.40656	457.29837	1278.85266	653.32867	304.87518	1318.74548	742.49091	132.53473	1377.95166	787.92322	90.65635	1300.28027	612.23083	38.82659	1408.99011	458.34525	1776.32886	-3357.46631	2845.70752	1033.94702			 
93	0.920	1488.79211	325.85706	1735.36499	1346.78735	338.86902	1715.08752	1511.00342	435.53830	1634.32434	1371.62024	460.00015	1611.18665	1429.58606	481.40472	1502.95178	1422.65369	532.73492	1229.03040	1446.54578	341.31351	1435.57886	1429.32422	289.91354	1263.36353	1358.12085	533.69470	1333.66553	1612.24707	423.45697	1470.59106	1689.22791	479.61041	1279.42798	1701.57141	513.32135	1144.53894	1726.78992	540.69238	1018.42487	1724.54053	512.70605	880.00732	1741.61426	563.40491	897.82446	1753.74902	564.34143	831.67725	1247.54053	388.77444	1476.88135	1158.19751	381.76355	1284.87183	1140.48743	338.60898	1142.65369	1135.78992	274.73193	1038.85278	1171.84509	195.89165	934.42047	1132.44934	232.19472	915.69812	1140.84888	176.68329	869.26605	1543.65833	283.42831	971.91284	1285.16760	313.64896	948.63898	1485.27783	502.34906	1010.71307	1372.73816	519.67236	1010.14893	1618.07178	281.12991	673.31952	1583.26306	251.76083	475.56348	1583.06824	255.75494	281.12000	1556.87537	198.52077	67.89294	1503.61792	229.06818	40.59390	1568.30554	43.30723	41.12053	1236.73572	470.15994	659.97900	1274.09338	528.46100	458.13055	1278.39038	646.16199	308.37448	1317.66809	738.67285	137.77783	1377.06262	784.93170	97.59099	1299.82007	611.74530	38.81266	1411.42419	448.62329	1776.73975						 
94	0.930	1491.03882	315.97519	1735.64465	1349.29102	328.99298	1715.50244	1513.40515	426.00412	1634.98486	1373.99194	450.38159	1611.82629	1431.76697	471.60812	1503.46008	1424.35596	522.12640	1228.98035	1448.83777	331.72406	1436.11816	1431.79468	279.67825	1264.22803	1360.45203	523.83118	1333.48010	1614.64929	414.04663	1470.67371	1691.75122	468.68707	1278.93872	1704.54578	501.24915	1143.78406	1729.94275	527.07843	1017.36029	1728.17725	497.01776	879.32556	1744.77356	548.31519	896.67725	1757.77612	548.21820	830.79138	1249.63635	379.11124	1477.06116	1160.26746	371.94809	1284.77979	1143.35522	329.67377	1142.34656	1137.63586	267.26392	1037.77808	1173.18298	189.51210	932.37903	1133.45276	225.98688	914.48193	1141.88721	171.35681	867.19489	1545.99158	271.86642	973.03638	1287.95691	301.11050	948.74469	1488.07922	490.78070	1011.76703	1375.39136	507.63074	1009.34076	1619.98755	271.74582	674.98920	1584.50476	240.08617	477.68387	1587.46338	247.30730	283.21771	1556.48071	197.84700	68.63557	1503.71912	228.75436	40.92573	1566.89722	42.26155	39.46085	1237.64331	458.27130	660.32843	1273.59534	516.57404	458.96854	1278.03760	637.77692	312.03168	1316.40820	734.18512	143.63524	1375.83167	781.15137	105.08633	1299.39478	611.23621	38.78954	1413.85022	438.68231	1777.40259						 
95	0.940	1493.57959	306.13992	1736.18726	1352.01892	319.20844	1716.19788	1515.87683	416.47650	1635.77222	1376.43945	440.84354	1612.68250	1433.82068	461.75531	1504.24365	1425.82776	511.47064	1229.05627	1451.14734	322.13721	1436.93542	1434.11133	269.37592	1265.07849	1362.61548	513.80243	1333.58044	1616.93127	404.54764	1471.00403	1694.27710	457.74408	1278.84839	1707.46753	488.92444	1143.36584	1733.01807	513.09302	1016.57721	1731.74182	480.97531	879.15399	1747.99353	532.64093	895.76208	1761.91016	531.58984	830.34766	1251.40295	369.35315	1477.49915	1162.77332	362.91824	1284.71301	1145.59436	321.16983	1142.56335	1139.61768	260.05042	1037.26990	1174.38049	183.68053	930.66028	1134.41980	220.22046	913.51929	1142.60144	166.26945	865.33118	1548.79700	260.32285	974.70850	1291.02856	288.69958	949.04614	1490.69861	479.51758	1013.40863	1377.72583	495.29807	1009.12347	1620.74670	260.92929	676.76648	1585.41406	228.58176	479.33575	1590.61841	239.43953	284.97128	1556.26477	196.62007	69.60522	1503.72473	228.11818	41.35658	1566.25684	40.61039	38.43265	1239.15283	445.46780	660.74530	1272.44226	503.59274	459.78387	1277.43970	628.29669	315.84561	1315.13501	728.88446	150.05000	1374.69958	776.22449	113.38144	1299.08472	610.57544	38.86559	1416.15710	428.68799	1778.19543	-3356.87280	2845.91357	1033.73010			 
96	0.950	1496.14575	296.31320	1736.70728	1354.39990	309.23965	1716.71338	1518.35718	406.92239	1636.63684	1378.87024	431.27884	1613.74292	1435.82629	452.28583	1505.17847	1427.16223	500.94302	1229.23853	1453.35071	312.70822	1437.81177	1436.79895	259.35431	1266.36414	1364.64661	504.10016	1333.79529	1619.17542	395.04349	1471.78809	1696.72473	446.68677	1279.05042	1710.41772	476.36227	1143.23438	1736.10034	498.67065	1016.09064	1735.35828	464.56400	879.44281	1751.17859	516.48907	895.23328	1765.72827	514.30859	830.08411	1253.47668	359.48370	1478.34302	1165.74609	354.26251	1285.37878	1148.18103	312.58612	1143.03308	1141.46313	252.63062	1036.99695	1175.59814	178.03203	929.09167	1135.67822	214.66003	912.71033	1143.20850	161.58559	863.83649	1551.85437	249.10127	976.83521	1294.51807	276.36569	949.65735	1493.02844	468.42242	1015.20599	1379.64954	482.97867	1009.37958	1621.18457	248.73991	678.35950	1586.15112	217.89778	480.20883	1592.37512	232.37039	286.17310	1556.46460	194.87778	70.00486	1503.90710	227.51785	41.70333	1566.25098	39.16266	37.38461	1240.96960	432.16232	661.17029	1271.11572	489.08505	460.41367	1276.59302	617.47876	319.85083	1313.90552	722.18225	156.75822	1374.10925	770.03796	122.48516	1298.76892	609.89355	38.76200	1418.62024	418.62405	1779.12195	-3356.93848	2845.92407	1033.60718			 
97	0.960	1498.98499	286.56793	1737.31909	1356.97156	299.29141	1717.46362	1520.73291	397.36911	1637.55469	1381.16199	421.67087	1614.77979	1437.64136	442.90469	1505.95862	1428.52502	490.63568	1229.55396	1455.49072	303.31863	1438.85193	1439.37524	249.20137	1267.68115	1366.00061	493.83356	1334.00317	1621.16431	385.50424	1472.70972	1699.23938	435.18973	1279.29492	1713.26733	463.46924	1143.36475	1739.10474	483.84573	1015.89410	1738.74658	447.58594	879.92969	1754.38269	499.71146	894.87976	1769.34485	496.51297	829.94464	1255.59851	349.61758	1479.47119	1167.89734	345.06049	1285.96887	1150.74695	304.05237	1143.77734	1143.12903	245.62946	1036.94824	1176.38281	172.40364	927.91833	1136.33728	209.75034	912.38354	1143.61499	157.27629	862.53491	1555.06653	238.21271	979.50623	1298.35815	264.12482	950.68964	1495.16577	457.48264	1016.76532	1381.32141	470.69162	1009.87573	1622.61304	235.55547	679.96228	1587.16541	208.53503	480.64932	1593.14917	226.27438	287.02252	1556.05017	193.50851	69.70895	1503.92908	227.06302	42.03393	1566.02197	38.11803	36.61038	1242.87891	418.41010	661.63092	1269.35400	473.09045	460.91678	1275.46289	605.28485	323.81754	1313.10510	714.34399	164.01767	1374.15198	762.14233	132.16759	1298.59900	608.80884	38.43581	1421.41760	408.58136	1780.19788						 
98	0.970	1501.46960	276.43729	1737.81604	1359.61853	289.29099	1718.40100	1523.09521	387.83008	1638.50330	1383.44214	412.15375	1616.21802	1439.25708	433.73239	1506.69189	1429.94543	480.53824	1230.01880	1457.62451	293.81195	1440.07800	1441.91455	239.22346	1269.10120	1367.30444	483.70966	1334.51709	1623.05347	376.16821	1473.88818	1701.91858	424.02136	1280.06335	1716.16516	450.40894	1143.70496	1742.22974	468.63278	1016.02399	1742.06824	430.05450	880.68561	1757.56921	482.45920	894.63147	1773.03467	478.21185	830.06543	1257.70911	339.79501	1480.69922	1170.71130	336.81647	1286.95020	1153.37878	295.68726	1144.85742	1145.11633	238.87971	1037.32007	1177.07703	166.91409	926.75549	1137.23596	204.87120	912.17249	1144.00110	153.26122	861.37195	1558.26624	227.53450	982.55121	1302.48242	252.03300	951.93591	1497.20764	446.88818	1018.02710	1382.86292	458.74332	1010.56342	1623.45764	223.15959	680.59283	1588.10583	199.98903	480.68622	1593.54138	221.23820	287.55161	1555.89270	192.82944	69.82327	1503.77124	226.81902	42.10477	1565.50635	37.32030	36.02443	1244.64001	404.28781	661.74866	1267.23621	456.01498	460.91885	1274.01465	591.55139	327.50214	1312.57080	704.90173	171.27911	1374.46497	752.55914	142.07277	1298.93567	607.63495	38.44348	1423.91162	398.27222	1781.32996	-3356.93872	2845.87720	1033.79358			 
99	0.980	1504.38049	266.63568	1738.48547	1362.16577	279.24124	1719.39551	1525.33862	378.29559	1639.53845	1385.62817	402.59161	1617.76831	1440.92395	424.75037	1507.36829	1431.58826	470.63434	1230.59778	1459.59143	284.45676	1441.37598	1444.41663	229.13022	1270.61389	1368.82007	474.10483	1335.28284	1624.85303	366.96768	1475.22754	1704.20410	412.44257	1280.64771	1719.04211	437.04880	1144.14490	1745.38550	453.11935	1016.31763	1744.94946	412.04950	881.37518	1760.88757	464.89047	894.85022	1776.31470	459.23264	830.16058	1259.53662	329.96146	1481.95508	1172.81494	327.15970	1288.21399	1155.90369	287.53259	1145.98669	1146.68628	231.72081	1037.89368	1178.26550	162.40532	925.64215	1138.01563	200.15436	912.10022	1144.19299	149.13373	860.24524	1561.42810	217.12128	985.62799	1306.78333	240.20584	953.27216	1499.10693	436.20734	1018.87537	1384.26953	447.21292	1011.34357	1625.25598	211.20377	681.02496	1589.19226	192.32404	480.66238	1593.54712	217.40543	287.62088	1555.63330	192.24716	69.78751	1503.69055	226.63918	42.22763	1565.21753	36.74457	35.50739	1246.34827	389.65103	661.68134	1265.00879	438.02011	460.51633	1272.48779	576.54626	330.90222	1312.10315	694.01794	178.47760	1375.01477	741.29877	152.13898	1299.86084	605.69751	38.74570	1426.53015	387.92685	1782.63721						 
